<svg width="951" height="161" viewBox="0 0 951 161" fill="none" xmlns="http://www.w3.org/2000/svg">
<path d="M208.875 26.25V61.125L247.125 26.25H276.375L236.375 61.5L281.25 117H253.375L220.375 75.375L208.875 85.625V117H186.125V26.25H208.875ZM310.725 49.375V58.25C316.975 50.75 323.6 47 331.225 47C332.725 47 335.475 47.25 337.1 47.5V65.25C335.975 65.125 332.85 65 330.475 65C318.225 65 310.725 73.125 310.725 86.75V117H289.725V49.375H310.725ZM371.854 71.75H350.104C350.104 55.75 363.229 47 388.479 47C406.729 47 423.354 51.125 423.354 72.5V106.125C423.354 110.75 423.979 113.75 426.479 115.5V117H403.354L402.354 109.625C394.729 116.5 385.729 119.375 374.104 119.375C354.979 119.375 343.979 110.375 343.979 97C343.979 83 354.604 78.125 376.104 76.375C393.479 75 402.854 75.5 402.854 68C402.854 62.875 397.604 60.375 387.229 60.375C376.979 60.375 371.854 63.75 371.854 71.75ZM402.854 84.375C398.479 86.75 392.729 87.125 385.729 87.875C373.854 89.125 367.604 90 367.604 96.5C367.604 101.625 371.979 105.125 378.979 105.125C393.354 105.125 402.854 97.5 402.854 86.75V84.375ZM445.979 31.375H466.979V49.375H482.729V65.5H466.979V93.875C466.979 101.75 467.104 103.25 474.104 103.25H482.729V119.375H468.479C453.104 119.375 445.979 115.125 445.979 103V65.5H436.104V49.375H445.979V31.375ZM489.46 83.125C489.46 61 505.46 47 532.335 47C559.21 47 575.085 61 575.085 83.125C575.085 105.375 558.96 119.375 532.335 119.375C505.71 119.375 489.46 105.375 489.46 83.125ZM512.21 83.25C512.21 95.125 520.085 103.25 532.335 103.25C544.335 103.25 552.335 95 552.335 83.125C552.335 71.25 544.335 63.125 532.335 63.125C520.085 63.125 512.21 71.375 512.21 83.25ZM609.064 59.5C616.564 51.625 625.564 47 635.564 47C648.939 47 658.439 53 662.064 61.625C669.064 52.5 679.064 47 690.064 47C712.689 47 719.064 59.75 719.064 79.75V117H698.064V84.25C698.064 70.75 695.314 63.125 683.314 63.125C671.314 63.125 663.689 71.625 663.689 83.625V117H643.439V84.25C643.439 70.75 640.564 63.125 628.689 63.125C616.689 63.125 609.064 71.625 609.064 83.625V117H588.064V49.375H609.064V59.5ZM758.264 26.25V117H737.264V26.25H758.264ZM798.791 49.375V117H777.791V49.375H798.791ZM777.791 26.375H798.791V42.5H777.791V26.375ZM889.818 69.5H868.943C867.943 63.5 862.443 60.75 852.443 60.75C843.568 60.75 838.818 63.25 838.818 66.875C838.818 70.875 843.943 72.5 854.568 73.375L869.318 74.5C883.943 75.625 891.943 82.875 891.943 94.625C891.943 110.625 879.068 119.375 853.943 119.375C828.693 119.375 815.568 111 814.568 94.75H836.693C837.318 101.875 843.443 104.5 855.693 104.5C864.943 104.5 870.193 101.5 870.193 97.875C870.193 93.625 866.443 92.875 858.443 92.25L839.443 90.625C825.318 89.375 816.818 81.25 816.818 69.875C816.818 55.25 829.443 47 853.568 47C876.818 47 889.818 55.5 889.818 69.5ZM911.799 31.375H932.799V49.375H948.549V65.5H932.799V93.875C932.799 101.75 932.924 103.25 939.924 103.25H948.549V119.375H934.299C918.924 119.375 911.799 115.125 911.799 103V65.5H901.924V49.375H911.799V31.375Z" fill="white"/>
<path d="M153.647 10.2196L152.668 0L142.879 3.24433C126.102 9.03988 108.186 10.8184 90.5884 8.43526C72.0963 5.58196 53.1688 8.11746 36.0956 15.735C27.0445 19.5669 19.1013 25.589 12.989 33.2529C6.87665 40.9167 2.78944 49.979 1.09946 59.6146C-1.09185 72.0622 0.00439747 84.8622 4.28092 96.7622C7.03456 90.5825 10.2523 84.6177 13.9069 78.9184C22.1967 66.7914 33.6832 57.1666 47.1083 51.0982C60.0417 45.227 74.1784 42.4492 88.3858 42.9874C74.8607 45.0435 61.9144 49.8774 50.3714 57.1814C44.8036 60.6597 39.7048 64.8298 35.1982 69.5909C30.8883 74.3497 27.0881 79.5416 23.8592 85.0826C17.7942 96.665 13.4787 109.073 11.0517 121.906C8.4357 134.78 7.01574 147.867 6.80978 161H23.125C23.8918 149.222 25.5002 137.513 27.938 125.961C39.2561 132.038 51.9487 135.137 64.8103 134.964C76.8059 134.956 88.6781 132.557 99.7249 127.908C161.804 101.548 153.647 13.8695 153.647 10.2196Z" fill="#059669"/>
</svg>
